<?xml version="1.0" encoding="UTF-8"?>
<svg width="9in" height="3in" version="1.1" viewBox="0 0 228.6 76.2" xmlns="http://www.w3.org/2000/svg"><g transform="translate(0,-220.8)"><g transform="matrix(.39324 0 0 .3047 -33.416 161.03)" fill="#fff" stroke="#000" aria-label="rpass "><path d="m146.28 235.89v7.8q7.8609-5.6672 12.37-7.5562 4.5703-1.8891 8.5312-1.8891 6.0938 0 11.822 4.5094 3.9 3.0469 3.9 6.2156 0 2.6812-1.8891 4.5703-1.8281 1.8281-4.4484 1.8281-2.3156 0-4.875-2.3156-2.5594-2.3156-4.5703-2.3156-2.6203 0-7.8609 3.2906-5.1797 3.2906-12.98 9.8719v18.83h17.794q4.5094 0 6.3984 1.7672 1.95 1.7062 1.95 4.5094 0 2.7422-1.95 4.5094-1.8891 1.7062-6.3984 1.7062h-37.72q-4.5094 0-6.4594-1.7062-1.8891-1.7672-1.8891-4.5703 0-2.7422 1.8891-4.4484 1.95-1.7672 6.4594-1.7672h7.4344v-30.347h-4.5094q-4.5094 0-6.4594-1.7062-1.8891-1.7672-1.8891-4.5703 0-2.7422 1.8891-4.4484 1.95-1.7672 6.4594-1.7672z" baseline-shift="super"/><path d="m220.01 357.43v31.5h11.531q6.9375 0 9.8438 2.625 3 2.7188 3 7.0312 0 4.2188-3 6.8438-2.9062 2.7188-9.8438 2.7188h-34.031q-6.9375 0-9.9375-2.7188-2.9062-2.625-2.9062-6.8438 0-4.3125 3-7.0312 3-2.625 9.8438-2.625h3.2812v-86.812h-3.2812q-6.9375 0-9.9375-2.625-2.9062-2.7188-2.9062-7.0312 0-4.2188 2.9062-6.8438 3-2.7188 9.9375-2.7188h22.5v6.5625q6.75-4.5938 13.969-6.8438t14.812-2.25q19.688 0 33.562 13.406 13.875 13.312 13.875 30.562 0 19.031-16.406 31.406-13.688 10.312-30.844 10.312-7.4062 0-14.625-2.1562t-14.344-6.4688zm57-33q0-4.0312-3.1875-10.219-3.1875-6.2812-9.8438-10.406-6.5625-4.2188-15.469-4.2188-14.344 0-22.781 10.781-5.7188 7.4062-5.7188 14.25 0 7.6875 8.1562 15 8.25 7.2188 20.344 7.2188 12.188 0 20.344-7.2188t8.1562-15.188z"/><path d="m376.29 368.02v-4.5q-7.2188 3.8438-15.938 5.7188-8.7188 1.9688-15.844 1.9688-15.469 0-25.125-8.1562-9.6562-8.25-9.6562-18.188 0-12.094 12.281-22.406 12.375-10.406 34.125-10.406 8.7188 0 20.156 1.875v-4.5938q0-4.3125-3.75-7.0312-3.6562-2.7188-14.062-2.7188-8.5312 0-22.125 3.375-5.0625 1.2188-7.875 1.2188-3.8438 0-6.5625-2.7188-2.625-2.8125-2.625-7.125 0-2.4375 0.9375-4.2188t2.625-2.8125q1.6875-1.125 7.0312-2.625 7.125-1.9688 14.531-3.0938 7.4062-1.2188 13.406-1.2188 17.906 0 27.75 7.7812 9.9375 7.6875 9.9375 21.094v39.562h3.2812q6.9375 0 9.8438 2.7188 3 2.625 3 6.9375 0 4.2188-3 6.9375-2.9062 2.625-9.8438 2.625zm0-34.406q-11.531-2.25-21.281-2.25-11.719 0-20.156 5.7188-5.25 3.6562-5.25 7.4062 0 2.7188 2.5312 4.4062 4.6875 3.0938 12.844 3.0938 6.9375 0 15.656-2.7188 8.8125-2.7188 15.656-7.4062z"/><path d="m494.88 305.4q-4.6875-2.9062-9.8438-4.3125-5.1562-1.5-10.781-1.5-11.156 0-17.719 3.6562-2.9062 1.5938-2.9062 3.4688 0 2.1562 3.9375 4.2188 3 1.5 13.406 2.9062 19.125 2.625 26.625 5.25 9.8438 3.4688 15.188 10.312t5.3438 14.438q0 10.312-9.0938 17.25-13.031 10.031-33.844 10.031-8.3438 0-15.469-1.5-7.0312-1.4062-12.938-4.2188-1.4062 1.2188-3 1.875t-3.2812 0.65625q-4.5 0-7.2188-2.9062-2.625-3-2.625-9.9375v-6.4688q0-6.9375 2.625-9.8438 2.7188-3 7.0312-3 3.4688 0 5.8125 1.9688 2.3438 1.875 3.6562 6.5625 4.4062 3.75 10.594 5.7188 6.1875 1.875 14.25 1.875 13.219 0 20.531-4.125 3.4688-2.0625 3.4688-4.3125 0-3.75-4.9688-6.1875t-20.531-4.125q-23.156-2.4375-30.938-9.375-7.7812-6.8438-7.7812-16.875 0-10.312 8.7188-17.156 11.812-9.375 30.938-9.375 6.6562 0 12.75 1.3125 6.1875 1.2188 11.812 3.8438 1.7812-1.3125 3.2812-1.9688 1.5938-0.65625 2.9062-0.65625 3.9375 0 6.5625 3 2.625 2.9062 2.625 9.8438v4.6875q0 6.2812-1.5 8.5312-3 4.3125-8.1562 4.3125-3.4688 0-6.0938-2.1562t-3.375-5.7188z"/><path d="m610.01 305.4q-4.6875-2.9062-9.8438-4.3125-5.1562-1.5-10.781-1.5-11.156 0-17.719 3.6562-2.9062 1.5938-2.9062 3.4688 0 2.1562 3.9375 4.2188 3 1.5 13.406 2.9062 19.125 2.625 26.625 5.25 9.8438 3.4688 15.188 10.312t5.3438 14.438q0 10.312-9.0938 17.25-13.031 10.031-33.844 10.031-8.3438 0-15.469-1.5-7.0312-1.4062-12.938-4.2188-1.4062 1.2188-3 1.875t-3.2812 0.65625q-4.5 0-7.2188-2.9062-2.625-3-2.625-9.9375v-6.4688q0-6.9375 2.625-9.8438 2.7188-3 7.0312-3 3.4688 0 5.8125 1.9688 2.3438 1.875 3.6562 6.5625 4.4062 3.75 10.594 5.7188 6.1875 1.875 14.25 1.875 13.219 0 20.531-4.125 3.4688-2.0625 3.4688-4.3125 0-3.75-4.9688-6.1875t-20.531-4.125q-23.156-2.4375-30.938-9.375-7.7812-6.8438-7.7812-16.875 0-10.312 8.7188-17.156 11.812-9.375 30.938-9.375 6.6562 0 12.75 1.3125 6.1875 1.2188 11.812 3.8438 1.7812-1.3125 3.2812-1.9688 1.5938-0.65625 2.9062-0.65625 3.9375 0 6.5625 3 2.625 2.9062 2.625 9.8438v4.6875q0 6.2812-1.5 8.5312-3 4.3125-8.1562 4.3125-3.4688 0-6.0938-2.1562t-3.375-5.7188z"/></g></g></svg>
